<mxfile host="65bd71144e">
    <diagram id="8Y_KLipHC2Sg12ouKVlJ" name="UC009 シーケンス図">
        <mxGraphModel dx="1822" dy="419" grid="1" gridSize="10" guides="1" tooltips="1" connect="1" arrows="1" fold="1" page="1" pageScale="1" pageWidth="827" pageHeight="1169" math="0" shadow="0">
            <root>
                <mxCell id="0"/>
                <mxCell id="1" parent="0"/>
                <mxCell id="s8Jeu8fIViUJOuyywlp3-1" value="Account&lt;br&gt;&lt;div&gt;Controller&lt;/div&gt;" style="rounded=0;whiteSpace=wrap;html=1;" parent="1" vertex="1">
                    <mxGeometry x="50" y="50" width="80" height="50" as="geometry"/>
                </mxCell>
                <mxCell id="s8Jeu8fIViUJOuyywlp3-4" value="Account&lt;br&gt;&lt;div&gt;Category&lt;/div&gt;&lt;div&gt;Repository&lt;/div&gt;" style="rounded=0;whiteSpace=wrap;html=1;" parent="1" vertex="1">
                    <mxGeometry x="518" y="50" width="86" height="50" as="geometry"/>
                </mxCell>
                <mxCell id="s8Jeu8fIViUJOuyywlp3-12" value="" style="endArrow=classic;html=1;rounded=0;" parent="1" source="s8Jeu8fIViUJOuyywlp3-32" edge="1">
                    <mxGeometry width="50" height="50" relative="1" as="geometry">
                        <mxPoint x="-10" y="130" as="sourcePoint"/>
                        <mxPoint x="80" y="130" as="targetPoint"/>
                    </mxGeometry>
                </mxCell>
                <mxCell id="s8Jeu8fIViUJOuyywlp3-13" value="" style="rounded=0;whiteSpace=wrap;html=1;" parent="1" vertex="1">
                    <mxGeometry x="85" y="130" width="10" height="160" as="geometry"/>
                </mxCell>
                <mxCell id="s8Jeu8fIViUJOuyywlp3-15" value="" style="endArrow=none;dashed=1;html=1;rounded=0;exitX=0.5;exitY=0;exitDx=0;exitDy=0;" parent="1" source="s8Jeu8fIViUJOuyywlp3-13" edge="1">
                    <mxGeometry width="50" height="50" relative="1" as="geometry">
                        <mxPoint x="90" y="210" as="sourcePoint"/>
                        <mxPoint x="90" y="100" as="targetPoint"/>
                    </mxGeometry>
                </mxCell>
                <mxCell id="s8Jeu8fIViUJOuyywlp3-16" value="" style="endArrow=none;dashed=1;html=1;rounded=0;entryX=0.75;entryY=1;entryDx=0;entryDy=0;" parent="1" source="s8Jeu8fIViUJOuyywlp3-80" target="s8Jeu8fIViUJOuyywlp3-13" edge="1">
                    <mxGeometry width="50" height="50" relative="1" as="geometry">
                        <mxPoint x="93" y="960" as="sourcePoint"/>
                        <mxPoint x="130" y="240" as="targetPoint"/>
                    </mxGeometry>
                </mxCell>
                <mxCell id="s8Jeu8fIViUJOuyywlp3-18" value="Form()" style="text;html=1;align=center;verticalAlign=middle;whiteSpace=wrap;rounded=0;" parent="1" vertex="1">
                    <mxGeometry x="10" y="100" width="60" height="30" as="geometry"/>
                </mxCell>
                <mxCell id="s8Jeu8fIViUJOuyywlp3-19" value="" style="endArrow=classic;html=1;rounded=0;" parent="1" edge="1">
                    <mxGeometry width="50" height="50" relative="1" as="geometry">
                        <mxPoint x="95" y="150" as="sourcePoint"/>
                        <mxPoint x="357.5" y="150" as="targetPoint"/>
                    </mxGeometry>
                </mxCell>
                <mxCell id="s8Jeu8fIViUJOuyywlp3-23" value="getEmployee&lt;span style=&quot;color: rgb(63, 63, 63); background-color: transparent;&quot;&gt;()&lt;/span&gt;" style="text;html=1;align=center;verticalAlign=middle;whiteSpace=wrap;rounded=0;" parent="1" vertex="1">
                    <mxGeometry x="190" y="120" width="60" height="30" as="geometry"/>
                </mxCell>
                <mxCell id="s8Jeu8fIViUJOuyywlp3-31" value="selectAll()" style="html=1;verticalAlign=bottom;endArrow=block;curved=0;rounded=0;" parent="1" edge="1" target="s8Jeu8fIViUJOuyywlp3-36">
                    <mxGeometry width="80" relative="1" as="geometry">
                        <mxPoint x="370" y="170" as="sourcePoint"/>
                        <mxPoint x="550" y="170" as="targetPoint"/>
                    </mxGeometry>
                </mxCell>
                <mxCell id="s8Jeu8fIViUJOuyywlp3-32" value="" style="shape=umlLifeline;perimeter=lifelinePerimeter;whiteSpace=wrap;html=1;container=1;dropTarget=0;collapsible=0;recursiveResize=0;outlineConnect=0;portConstraint=eastwest;newEdgeStyle={&quot;curved&quot;:0,&quot;rounded&quot;:0};participant=umlActor;" parent="1" vertex="1">
                    <mxGeometry x="-30" y="50" width="20" height="1270" as="geometry"/>
                </mxCell>
                <mxCell id="s8Jeu8fIViUJOuyywlp3-33" value="Account&lt;br&gt;&lt;div&gt;Form&lt;/div&gt;" style="shape=umlLifeline;perimeter=lifelinePerimeter;whiteSpace=wrap;html=1;container=1;dropTarget=0;collapsible=0;recursiveResize=0;outlineConnect=0;portConstraint=eastwest;newEdgeStyle={&quot;curved&quot;:0,&quot;rounded&quot;:0};size=50;" parent="1" vertex="1">
                    <mxGeometry x="140" y="50" width="80" height="1270" as="geometry"/>
                </mxCell>
                <mxCell id="s8Jeu8fIViUJOuyywlp3-83" value="" style="html=1;points=[[0,0,0,0,5],[0,1,0,0,-5],[1,0,0,0,5],[1,1,0,0,-5]];perimeter=orthogonalPerimeter;outlineConnect=0;targetShapes=umlLifeline;portConstraint=eastwest;newEdgeStyle={&quot;curved&quot;:0,&quot;rounded&quot;:0};" parent="s8Jeu8fIViUJOuyywlp3-33" vertex="1">
                    <mxGeometry x="35" y="400" width="10" height="60" as="geometry"/>
                </mxCell>
                <mxCell id="s8Jeu8fIViUJOuyywlp3-84" value="バリデート" style="html=1;align=left;spacingLeft=2;endArrow=block;rounded=0;edgeStyle=orthogonalEdgeStyle;curved=0;rounded=0;" parent="s8Jeu8fIViUJOuyywlp3-33" source="s8Jeu8fIViUJOuyywlp3-83" target="s8Jeu8fIViUJOuyywlp3-83" edge="1">
                    <mxGeometry relative="1" as="geometry">
                        <mxPoint x="35" y="380" as="sourcePoint"/>
                        <Array as="points"/>
                    </mxGeometry>
                </mxCell>
                <mxCell id="s8Jeu8fIViUJOuyywlp3-34" value="Account&lt;div&gt;Helper&lt;/div&gt;" style="shape=umlLifeline;perimeter=lifelinePerimeter;whiteSpace=wrap;html=1;container=1;dropTarget=0;collapsible=0;recursiveResize=0;outlineConnect=0;portConstraint=eastwest;newEdgeStyle={&quot;curved&quot;:0,&quot;rounded&quot;:0};" parent="1" vertex="1">
                    <mxGeometry x="230" y="50" width="80" height="1270" as="geometry"/>
                </mxCell>
                <mxCell id="s8Jeu8fIViUJOuyywlp3-35" value="Account&lt;br&gt;&lt;div&gt;Service&lt;/div&gt;" style="shape=umlLifeline;perimeter=lifelinePerimeter;whiteSpace=wrap;html=1;container=1;dropTarget=0;collapsible=0;recursiveResize=0;outlineConnect=0;portConstraint=eastwest;newEdgeStyle={&quot;curved&quot;:0,&quot;rounded&quot;:0};" parent="1" vertex="1">
                    <mxGeometry x="330" y="50" width="66" height="1270" as="geometry"/>
                </mxCell>
                <mxCell id="s8Jeu8fIViUJOuyywlp3-37" value="" style="html=1;points=[[0,0,0,0,5],[0,1,0,0,-5],[1,0,0,0,5],[1,1,0,0,-5]];perimeter=orthogonalPerimeter;outlineConnect=0;targetShapes=umlLifeline;portConstraint=eastwest;newEdgeStyle={&quot;curved&quot;:0,&quot;rounded&quot;:0};" parent="s8Jeu8fIViUJOuyywlp3-35" vertex="1">
                    <mxGeometry x="28" y="100" width="10" height="120" as="geometry"/>
                </mxCell>
                <mxCell id="ohODwQGD-HHK7KQ1DOJq-2" value="" style="html=1;points=[[0,0,0,0,5],[0,1,0,0,-5],[1,0,0,0,5],[1,1,0,0,-5]];perimeter=orthogonalPerimeter;outlineConnect=0;targetShapes=umlLifeline;portConstraint=eastwest;newEdgeStyle={&quot;curved&quot;:0,&quot;rounded&quot;:0};" parent="s8Jeu8fIViUJOuyywlp3-35" vertex="1">
                    <mxGeometry x="30" y="510" width="10" height="190" as="geometry"/>
                </mxCell>
                <mxCell id="s8Jeu8fIViUJOuyywlp3-36" value="Account&lt;br&gt;&lt;div&gt;Repository&lt;/div&gt;" style="shape=umlLifeline;perimeter=lifelinePerimeter;whiteSpace=wrap;html=1;container=1;dropTarget=0;collapsible=0;recursiveResize=0;outlineConnect=0;portConstraint=eastwest;newEdgeStyle={&quot;curved&quot;:0,&quot;rounded&quot;:0};" parent="1" vertex="1">
                    <mxGeometry x="670" y="50" width="100" height="1270" as="geometry"/>
                </mxCell>
                <mxCell id="s8Jeu8fIViUJOuyywlp3-39" value="confirm()" style="html=1;verticalAlign=bottom;endArrow=block;curved=0;rounded=0;" parent="1" edge="1">
                    <mxGeometry relative="1" as="geometry">
                        <mxPoint x="-15" y="420" as="sourcePoint"/>
                        <mxPoint x="95" y="420" as="targetPoint"/>
                    </mxGeometry>
                </mxCell>
                <mxCell id="s8Jeu8fIViUJOuyywlp3-43" value="Accountセット" style="html=1;verticalAlign=bottom;endArrow=block;curved=0;rounded=0;entryX=0;entryY=0;entryDx=0;entryDy=5;" parent="1" edge="1">
                    <mxGeometry x="0.2" relative="1" as="geometry">
                        <mxPoint x="95" y="460" as="sourcePoint"/>
                        <mxPoint x="170" y="460" as="targetPoint"/>
                        <mxPoint as="offset"/>
                    </mxGeometry>
                </mxCell>
                <mxCell id="s8Jeu8fIViUJOuyywlp3-49" value="Account" style="html=1;verticalAlign=bottom;endArrow=open;dashed=1;endSize=8;curved=0;rounded=0;entryX=1;entryY=0.346;entryDx=0;entryDy=0;entryPerimeter=0;" parent="1" edge="1">
                    <mxGeometry x="0.0028" relative="1" as="geometry">
                        <mxPoint x="100" y="949.96" as="targetPoint"/>
                        <mxPoint x="269.75" y="950" as="sourcePoint"/>
                        <mxPoint as="offset"/>
                    </mxGeometry>
                </mxCell>
                <mxCell id="s8Jeu8fIViUJOuyywlp3-51" value="addAccount(Account)" style="html=1;verticalAlign=bottom;endArrow=block;curved=0;rounded=0;entryX=0.333;entryY=0.158;entryDx=0;entryDy=0;entryPerimeter=0;" parent="1" target="s8Jeu8fIViUJOuyywlp3-89" edge="1">
                    <mxGeometry x="-0.0018" width="80" relative="1" as="geometry">
                        <mxPoint x="95" y="1000" as="sourcePoint"/>
                        <mxPoint x="350" y="1000" as="targetPoint"/>
                        <mxPoint as="offset"/>
                    </mxGeometry>
                </mxCell>
                <mxCell id="s8Jeu8fIViUJOuyywlp3-52" value="insert(Account)" style="html=1;verticalAlign=bottom;endArrow=block;curved=0;rounded=0;" parent="1" target="s8Jeu8fIViUJOuyywlp3-36" edge="1">
                    <mxGeometry width="80" relative="1" as="geometry">
                        <mxPoint x="370" y="1020" as="sourcePoint"/>
                        <mxPoint x="679.5" y="1020" as="targetPoint"/>
                    </mxGeometry>
                </mxCell>
                <mxCell id="s8Jeu8fIViUJOuyywlp3-54" value="complete()" style="html=1;verticalAlign=bottom;endArrow=block;curved=0;rounded=0;" parent="1" edge="1">
                    <mxGeometry x="-0.0909" y="5" relative="1" as="geometry">
                        <mxPoint x="-15" y="1160" as="sourcePoint"/>
                        <mxPoint x="90" y="1160" as="targetPoint"/>
                        <mxPoint as="offset"/>
                    </mxGeometry>
                </mxCell>
                <mxCell id="s8Jeu8fIViUJOuyywlp3-56" value="List&lt;div&gt;&amp;lt;Employee&amp;gt;&lt;/div&gt;" style="html=1;verticalAlign=bottom;endArrow=open;dashed=1;endSize=8;curved=0;rounded=0;" parent="1" edge="1" source="s8Jeu8fIViUJOuyywlp3-36">
                    <mxGeometry x="-0.0106" relative="1" as="geometry">
                        <mxPoint x="550" y="234" as="sourcePoint"/>
                        <mxPoint x="368.5" y="234" as="targetPoint"/>
                        <mxPoint as="offset"/>
                    </mxGeometry>
                </mxCell>
                <mxCell id="s8Jeu8fIViUJOuyywlp3-57" value="List&lt;div&gt;&amp;lt;Employee&amp;gt;&lt;/div&gt;" style="html=1;verticalAlign=bottom;endArrow=open;dashed=1;endSize=8;curved=0;rounded=0;" parent="1" source="s8Jeu8fIViUJOuyywlp3-37" edge="1">
                    <mxGeometry relative="1" as="geometry">
                        <mxPoint x="350" y="220" as="sourcePoint"/>
                        <mxPoint x="100" y="250" as="targetPoint"/>
                    </mxGeometry>
                </mxCell>
                <mxCell id="s8Jeu8fIViUJOuyywlp3-44" value="&amp;nbsp;AccountForm" style="html=1;verticalAlign=bottom;endArrow=open;dashed=1;endSize=8;curved=0;rounded=0;exitX=0;exitY=1;exitDx=0;exitDy=-5;" parent="1" edge="1">
                    <mxGeometry relative="1" as="geometry">
                        <mxPoint x="100" y="504.5" as="targetPoint"/>
                        <mxPoint x="175" y="504.5" as="sourcePoint"/>
                    </mxGeometry>
                </mxCell>
                <mxCell id="s8Jeu8fIViUJOuyywlp3-60" value="void" style="html=1;verticalAlign=bottom;endArrow=open;dashed=1;endSize=8;curved=0;rounded=0;" parent="1" source="s8Jeu8fIViUJOuyywlp3-36" edge="1">
                    <mxGeometry relative="1" as="geometry">
                        <mxPoint x="671.5" y="1070" as="sourcePoint"/>
                        <mxPoint x="370" y="1070" as="targetPoint"/>
                    </mxGeometry>
                </mxCell>
                <mxCell id="s8Jeu8fIViUJOuyywlp3-61" value="void" style="html=1;verticalAlign=bottom;endArrow=open;dashed=1;endSize=8;curved=0;rounded=0;" parent="1" edge="1">
                    <mxGeometry relative="1" as="geometry">
                        <mxPoint x="356" y="1080" as="sourcePoint"/>
                        <mxPoint x="101" y="1080" as="targetPoint"/>
                    </mxGeometry>
                </mxCell>
                <mxCell id="s8Jeu8fIViUJOuyywlp3-48" value="helperでEntityへ変換" style="html=1;verticalAlign=bottom;endArrow=block;curved=0;rounded=0;entryX=0;entryY=0.379;entryDx=0;entryDy=0;entryPerimeter=0;" parent="1" target="s8Jeu8fIViUJOuyywlp3-88" edge="1">
                    <mxGeometry relative="1" as="geometry">
                        <mxPoint x="95" y="910" as="sourcePoint"/>
                        <mxPoint x="260" y="910" as="targetPoint"/>
                    </mxGeometry>
                </mxCell>
                <mxCell id="s8Jeu8fIViUJOuyywlp3-62" value="viewへ社員名を表示" style="html=1;verticalAlign=bottom;endArrow=open;dashed=1;endSize=8;curved=0;rounded=0;" parent="1" edge="1">
                    <mxGeometry x="-0.1469" relative="1" as="geometry">
                        <mxPoint x="85" y="310" as="sourcePoint"/>
                        <mxPoint x="-20.5" y="310" as="targetPoint"/>
                        <mxPoint as="offset"/>
                        <Array as="points"/>
                    </mxGeometry>
                </mxCell>
                <mxCell id="s8Jeu8fIViUJOuyywlp3-63" value="viewへ&lt;div&gt;入力した情報を表示&lt;/div&gt;" style="html=1;verticalAlign=bottom;endArrow=open;dashed=1;endSize=8;curved=0;rounded=0;" parent="1" edge="1">
                    <mxGeometry x="0.086" y="-10" relative="1" as="geometry">
                        <mxPoint x="90" y="779" as="sourcePoint"/>
                        <mxPoint x="-20.5" y="779" as="targetPoint"/>
                        <Array as="points">
                            <mxPoint x="50" y="779"/>
                            <mxPoint x="40" y="779"/>
                        </Array>
                        <mxPoint as="offset"/>
                    </mxGeometry>
                </mxCell>
                <mxCell id="s8Jeu8fIViUJOuyywlp3-64" value="BP005を表示" style="html=1;verticalAlign=bottom;endArrow=open;dashed=1;endSize=8;curved=0;rounded=0;" parent="1" edge="1">
                    <mxGeometry relative="1" as="geometry">
                        <mxPoint x="90" y="1190" as="sourcePoint"/>
                        <mxPoint x="-20.5" y="1190" as="targetPoint"/>
                        <mxPoint as="offset"/>
                    </mxGeometry>
                </mxCell>
                <mxCell id="s8Jeu8fIViUJOuyywlp3-65" value="" style="rounded=0;whiteSpace=wrap;html=1;" parent="1" vertex="1">
                    <mxGeometry x="-30" y="370" width="1000" height="10" as="geometry"/>
                </mxCell>
                <mxCell id="s8Jeu8fIViUJOuyywlp3-66" value="" style="rounded=0;whiteSpace=wrap;html=1;" parent="1" vertex="1">
                    <mxGeometry x="-40" y="810" width="1010" height="10" as="geometry"/>
                </mxCell>
                <mxCell id="s8Jeu8fIViUJOuyywlp3-67" value="execute()" style="html=1;verticalAlign=bottom;endArrow=block;curved=0;rounded=0;" parent="1" edge="1">
                    <mxGeometry width="80" relative="1" as="geometry">
                        <mxPoint x="-25" y="880" as="sourcePoint"/>
                        <mxPoint x="85" y="880" as="targetPoint"/>
                    </mxGeometry>
                </mxCell>
                <mxCell id="s8Jeu8fIViUJOuyywlp3-68" value="DB" style="shape=umlLifeline;perimeter=lifelinePerimeter;whiteSpace=wrap;html=1;container=1;dropTarget=0;collapsible=0;recursiveResize=0;outlineConnect=0;portConstraint=eastwest;newEdgeStyle={&quot;curved&quot;:0,&quot;rounded&quot;:0};" parent="1" vertex="1">
                    <mxGeometry x="827" y="50" width="100" height="1270" as="geometry"/>
                </mxCell>
                <mxCell id="s8Jeu8fIViUJOuyywlp3-69" value="" style="html=1;points=[[0,0,0,0,5],[0,1,0,0,-5],[1,0,0,0,5],[1,1,0,0,-5]];perimeter=orthogonalPerimeter;outlineConnect=0;targetShapes=umlLifeline;portConstraint=eastwest;newEdgeStyle={&quot;curved&quot;:0,&quot;rounded&quot;:0};" parent="s8Jeu8fIViUJOuyywlp3-68" vertex="1">
                    <mxGeometry x="45" y="120" width="10" height="80" as="geometry"/>
                </mxCell>
                <mxCell id="s8Jeu8fIViUJOuyywlp3-98" value="" style="html=1;points=[[0,0,0,0,5],[0,1,0,0,-5],[1,0,0,0,5],[1,1,0,0,-5]];perimeter=orthogonalPerimeter;outlineConnect=0;targetShapes=umlLifeline;portConstraint=eastwest;newEdgeStyle={&quot;curved&quot;:0,&quot;rounded&quot;:0};" parent="s8Jeu8fIViUJOuyywlp3-68" vertex="1">
                    <mxGeometry x="45" y="970" width="10" height="60" as="geometry"/>
                </mxCell>
                <mxCell id="__CR3NvaxdOB2-iodrJ0-1" value="" style="html=1;points=[[0,0,0,0,5],[0,1,0,0,-5],[1,0,0,0,5],[1,1,0,0,-5]];perimeter=orthogonalPerimeter;outlineConnect=0;targetShapes=umlLifeline;portConstraint=eastwest;newEdgeStyle={&quot;curved&quot;:0,&quot;rounded&quot;:0};" parent="s8Jeu8fIViUJOuyywlp3-68" vertex="1">
                    <mxGeometry x="48" y="540" width="10" height="80" as="geometry"/>
                </mxCell>
                <mxCell id="__CR3NvaxdOB2-iodrJ0-2" value="SQL(SELECT ACCOUNT_NAME)" style="html=1;verticalAlign=bottom;endArrow=block;curved=0;rounded=0;entryX=0;entryY=0;entryDx=0;entryDy=5;" parent="s8Jeu8fIViUJOuyywlp3-68" target="__CR3NvaxdOB2-iodrJ0-1" edge="1">
                    <mxGeometry relative="1" as="geometry">
                        <mxPoint x="-257" y="545" as="sourcePoint"/>
                        <Array as="points">
                            <mxPoint x="-187" y="545"/>
                        </Array>
                    </mxGeometry>
                </mxCell>
                <mxCell id="s8Jeu8fIViUJOuyywlp3-73" value="" style="endArrow=none;dashed=1;html=1;rounded=0;" parent="1" target="s8Jeu8fIViUJOuyywlp3-4" edge="1">
                    <mxGeometry width="50" height="50" relative="1" as="geometry">
                        <mxPoint x="560" y="1323" as="sourcePoint"/>
                        <mxPoint x="561" y="255" as="targetPoint"/>
                        <Array as="points">
                            <mxPoint x="561" y="950"/>
                        </Array>
                    </mxGeometry>
                </mxCell>
                <mxCell id="s8Jeu8fIViUJOuyywlp3-71" value="List&amp;lt;Employee&amp;gt;" style="html=1;verticalAlign=bottom;endArrow=open;dashed=1;endSize=8;curved=0;rounded=0;" parent="1" source="s8Jeu8fIViUJOuyywlp3-68" edge="1">
                    <mxGeometry relative="1" as="geometry">
                        <mxPoint x="730" y="225" as="targetPoint"/>
                    </mxGeometry>
                </mxCell>
                <mxCell id="s8Jeu8fIViUJOuyywlp3-77" value="Modelにセット" style="html=1;align=left;spacingLeft=2;endArrow=block;rounded=0;edgeStyle=orthogonalEdgeStyle;curved=0;rounded=0;" parent="1" edge="1">
                    <mxGeometry relative="1" as="geometry">
                        <mxPoint x="100" y="260" as="sourcePoint"/>
                        <Array as="points">
                            <mxPoint x="130" y="290"/>
                        </Array>
                        <mxPoint x="105" y="290" as="targetPoint"/>
                    </mxGeometry>
                </mxCell>
                <mxCell id="s8Jeu8fIViUJOuyywlp3-81" value="" style="endArrow=none;dashed=1;html=1;rounded=0;entryX=0.75;entryY=1;entryDx=0;entryDy=0;" parent="1" source="s8Jeu8fIViUJOuyywlp3-86" target="s8Jeu8fIViUJOuyywlp3-80" edge="1">
                    <mxGeometry width="50" height="50" relative="1" as="geometry">
                        <mxPoint x="93" y="960" as="sourcePoint"/>
                        <mxPoint x="93" y="290" as="targetPoint"/>
                    </mxGeometry>
                </mxCell>
                <mxCell id="s8Jeu8fIViUJOuyywlp3-80" value="" style="rounded=0;whiteSpace=wrap;html=1;" parent="1" vertex="1">
                    <mxGeometry x="90" y="400" width="10" height="380" as="geometry"/>
                </mxCell>
                <mxCell id="s8Jeu8fIViUJOuyywlp3-86" value="" style="rounded=0;whiteSpace=wrap;html=1;" parent="1" vertex="1">
                    <mxGeometry x="90" y="850" width="10" height="260" as="geometry"/>
                </mxCell>
                <mxCell id="s8Jeu8fIViUJOuyywlp3-88" value="" style="rounded=0;whiteSpace=wrap;html=1;" parent="1" vertex="1">
                    <mxGeometry x="270" y="880" width="6" height="80" as="geometry"/>
                </mxCell>
                <mxCell id="s8Jeu8fIViUJOuyywlp3-89" value="" style="rounded=0;whiteSpace=wrap;html=1;" parent="1" vertex="1">
                    <mxGeometry x="356" y="980" width="14" height="120" as="geometry"/>
                </mxCell>
                <mxCell id="s8Jeu8fIViUJOuyywlp3-92" value="" style="endArrow=none;dashed=1;html=1;rounded=0;entryX=0.75;entryY=1;entryDx=0;entryDy=0;" parent="1" edge="1">
                    <mxGeometry width="50" height="50" relative="1" as="geometry">
                        <mxPoint x="98" y="1210" as="sourcePoint"/>
                        <mxPoint x="97.5" y="1210" as="targetPoint"/>
                    </mxGeometry>
                </mxCell>
                <mxCell id="s8Jeu8fIViUJOuyywlp3-95" value="" style="html=1;points=[[0,0,0,0,5],[0,1,0,0,-5],[1,0,0,0,5],[1,1,0,0,-5]];perimeter=orthogonalPerimeter;outlineConnect=0;targetShapes=umlLifeline;portConstraint=eastwest;newEdgeStyle={&quot;curved&quot;:0,&quot;rounded&quot;:0};" parent="1" vertex="1">
                    <mxGeometry x="90" y="1140" width="10" height="50" as="geometry"/>
                </mxCell>
                <mxCell id="s8Jeu8fIViUJOuyywlp3-96" value="セッション破棄" style="html=1;align=left;spacingLeft=2;endArrow=block;rounded=0;edgeStyle=orthogonalEdgeStyle;curved=0;rounded=0;" parent="1" edge="1">
                    <mxGeometry relative="1" as="geometry">
                        <mxPoint x="100" y="1180" as="sourcePoint"/>
                        <Array as="points">
                            <mxPoint x="100" y="1150"/>
                            <mxPoint x="125" y="1150"/>
                            <mxPoint x="125" y="1180"/>
                        </Array>
                        <mxPoint x="100" y="1180" as="targetPoint"/>
                    </mxGeometry>
                </mxCell>
                <mxCell id="s8Jeu8fIViUJOuyywlp3-100" value="void" style="html=1;verticalAlign=bottom;endArrow=open;dashed=1;endSize=8;curved=0;rounded=0;" parent="1" edge="1">
                    <mxGeometry relative="1" as="geometry">
                        <mxPoint x="725" y="1060" as="targetPoint"/>
                        <mxPoint x="871.5" y="1060" as="sourcePoint"/>
                        <Array as="points">
                            <mxPoint x="785" y="1060"/>
                        </Array>
                    </mxGeometry>
                </mxCell>
                <mxCell id="s8Jeu8fIViUJOuyywlp3-99" value="SQL(INSERT)" style="html=1;verticalAlign=bottom;endArrow=block;curved=0;rounded=0;entryX=0;entryY=0;entryDx=0;entryDy=5;" parent="1" edge="1">
                    <mxGeometry relative="1" as="geometry">
                        <mxPoint x="715" y="1039.5" as="sourcePoint"/>
                        <mxPoint x="870.5" y="1039.5" as="targetPoint"/>
                    </mxGeometry>
                </mxCell>
                <mxCell id="s8Jeu8fIViUJOuyywlp3-70" value="SQL(SELECT EMPLOYEE)" style="html=1;verticalAlign=bottom;endArrow=block;curved=0;rounded=0;" parent="1" edge="1">
                    <mxGeometry relative="1" as="geometry">
                        <mxPoint x="720" y="190" as="sourcePoint"/>
                        <mxPoint x="873.25" y="190" as="targetPoint"/>
                    </mxGeometry>
                </mxCell>
                <mxCell id="ohODwQGD-HHK7KQ1DOJq-1" value="" style="endArrow=none;dashed=1;html=1;rounded=0;entryX=0.25;entryY=1;entryDx=0;entryDy=0;" parent="1" source="s8Jeu8fIViUJOuyywlp3-95" target="s8Jeu8fIViUJOuyywlp3-86" edge="1">
                    <mxGeometry width="50" height="50" relative="1" as="geometry">
                        <mxPoint x="120" y="1140" as="sourcePoint"/>
                        <mxPoint x="170" y="1090" as="targetPoint"/>
                    </mxGeometry>
                </mxCell>
                <mxCell id="FzJ_NfWv-Ki3ExYaJ5tW-1" value="" style="html=1;points=[[0,0,0,0,5],[0,1,0,0,-5],[1,0,0,0,5],[1,1,0,0,-5]];perimeter=orthogonalPerimeter;outlineConnect=0;targetShapes=umlLifeline;portConstraint=eastwest;newEdgeStyle={&quot;curved&quot;:0,&quot;rounded&quot;:0};" parent="1" vertex="1">
                    <mxGeometry x="556" y="585" width="10" height="115" as="geometry"/>
                </mxCell>
                <mxCell id="FzJ_NfWv-Ki3ExYaJ5tW-2" value="selectByAccountName&lt;span style=&quot;background-color: light-dark(#ffffff, var(--ge-dark-color, #121212)); color: light-dark(rgb(0, 0, 0), rgb(255, 255, 255));&quot;&gt;()&lt;/span&gt;" style="html=1;verticalAlign=bottom;endArrow=block;curved=0;rounded=0;entryX=0;entryY=0;entryDx=0;entryDy=5;" parent="1" source="ohODwQGD-HHK7KQ1DOJq-2" target="FzJ_NfWv-Ki3ExYaJ5tW-1" edge="1">
                    <mxGeometry relative="1" as="geometry">
                        <mxPoint x="448" y="595" as="sourcePoint"/>
                    </mxGeometry>
                </mxCell>
                <mxCell id="FzJ_NfWv-Ki3ExYaJ5tW-3" value="return List&amp;lt;AccountName&amp;gt;" style="html=1;verticalAlign=bottom;endArrow=open;dashed=1;endSize=8;curved=0;rounded=0;exitX=0;exitY=1;exitDx=0;exitDy=-5;" parent="1" edge="1">
                    <mxGeometry x="-0.0753" relative="1" as="geometry">
                        <mxPoint x="370" y="684.5" as="targetPoint"/>
                        <mxPoint x="556" y="684.5" as="sourcePoint"/>
                        <mxPoint as="offset"/>
                    </mxGeometry>
                </mxCell>
                <mxCell id="__CR3NvaxdOB2-iodrJ0-3" value="return List&amp;lt;AccountName&amp;gt;" style="html=1;verticalAlign=bottom;endArrow=open;dashed=1;endSize=8;curved=0;rounded=0;exitX=0;exitY=1;exitDx=0;exitDy=-5;" parent="1" source="__CR3NvaxdOB2-iodrJ0-1" edge="1">
                    <mxGeometry relative="1" as="geometry">
                        <mxPoint x="570" y="665" as="targetPoint"/>
                    </mxGeometry>
                </mxCell>
                <mxCell id="ohODwQGD-HHK7KQ1DOJq-3" value="sameAccountName()" style="html=1;verticalAlign=bottom;endArrow=block;curved=0;rounded=0;exitX=1.1;exitY=0.445;exitDx=0;exitDy=0;exitPerimeter=0;" parent="1" source="s8Jeu8fIViUJOuyywlp3-80" target="ohODwQGD-HHK7KQ1DOJq-2" edge="1">
                    <mxGeometry relative="1" as="geometry">
                        <mxPoint x="110" y="575" as="sourcePoint"/>
                    </mxGeometry>
                </mxCell>
                <mxCell id="s8Jeu8fIViUJOuyywlp3-90" value="" style="rounded=0;whiteSpace=wrap;html=1;" parent="1" vertex="1">
                    <mxGeometry x="715" y="1010" width="10" height="80" as="geometry"/>
                </mxCell>
                <mxCell id="__CR3NvaxdOB2-iodrJ0-6" value="return false" style="html=1;verticalAlign=bottom;endArrow=open;dashed=1;endSize=8;curved=0;rounded=0;entryX=1.5;entryY=0.768;entryDx=0;entryDy=0;entryPerimeter=0;" parent="1" edge="1">
                    <mxGeometry relative="1" as="geometry">
                        <mxPoint x="359.5" y="690.0000000000001" as="sourcePoint"/>
                        <mxPoint x="100" y="690.0000000000001" as="targetPoint"/>
                    </mxGeometry>
                </mxCell>
                <mxCell id="__CR3NvaxdOB2-iodrJ0-7" value="return true" style="html=1;verticalAlign=bottom;endArrow=open;dashed=1;endSize=8;curved=0;rounded=0;entryX=1.3;entryY=0.87;entryDx=0;entryDy=0;entryPerimeter=0;" parent="1" edge="1">
                    <mxGeometry relative="1" as="geometry">
                        <mxPoint x="357" y="720" as="sourcePoint"/>
                        <mxPoint x="100" y="720.5999999999999" as="targetPoint"/>
                    </mxGeometry>
                </mxCell>
                <mxCell id="__CR3NvaxdOB2-iodrJ0-8" value="重複あり" style="rounded=0;whiteSpace=wrap;html=1;" parent="1" vertex="1">
                    <mxGeometry x="290" y="640" width="52" height="45" as="geometry"/>
                </mxCell>
                <mxCell id="__CR3NvaxdOB2-iodrJ0-10" value="重複なし" style="rounded=0;whiteSpace=wrap;html=1;" parent="1" vertex="1">
                    <mxGeometry x="290" y="730" width="54" height="40" as="geometry"/>
                </mxCell>
                <mxCell id="s8Jeu8fIViUJOuyywlp3-79" value="アカウント名&lt;div&gt;パスワード入力&lt;/div&gt;" style="html=1;align=left;spacingLeft=2;endArrow=block;rounded=0;edgeStyle=orthogonalEdgeStyle;curved=0;rounded=0;" parent="1" edge="1">
                    <mxGeometry relative="1" as="geometry">
                        <mxPoint x="-20" y="340" as="sourcePoint"/>
                        <Array as="points">
                            <mxPoint x="-20" y="330"/>
                            <mxPoint x="10" y="330"/>
                            <mxPoint x="10" y="360"/>
                        </Array>
                        <mxPoint x="-15" y="360" as="targetPoint"/>
                    </mxGeometry>
                </mxCell>
                <mxCell id="2C_LoJ3Lsyk89EPJyr0k-2" value="" style="endArrow=none;dashed=1;html=1;rounded=0;" parent="1" edge="1">
                    <mxGeometry width="50" height="50" relative="1" as="geometry">
                        <mxPoint x="95" y="1320" as="sourcePoint"/>
                        <mxPoint x="94.5" y="1190" as="targetPoint"/>
                    </mxGeometry>
                </mxCell>
                <mxCell id="G3-p8Tarrt5oqSG48KqV-1" value="Modelにセット" style="html=1;align=left;spacingLeft=2;endArrow=block;rounded=0;edgeStyle=orthogonalEdgeStyle;curved=0;rounded=0;" parent="1" edge="1">
                    <mxGeometry x="0.0588" y="10" relative="1" as="geometry">
                        <mxPoint x="100" y="735" as="sourcePoint"/>
                        <Array as="points">
                            <mxPoint x="130" y="765"/>
                        </Array>
                        <mxPoint x="105" y="765" as="targetPoint"/>
                        <mxPoint as="offset"/>
                    </mxGeometry>
                </mxCell>
                <mxCell id="2" value="" style="rounded=0;whiteSpace=wrap;html=1;" vertex="1" parent="1">
                    <mxGeometry x="715" y="162.5" width="10" height="95" as="geometry"/>
                </mxCell>
            </root>
        </mxGraphModel>
    </diagram>
</mxfile>